<svg width="28" height="28" viewBox="0 0 28 28" fill="none" xmlns="http://www.w3.org/2000/svg">
<path d="M3.91169 10.4422C4.67177 7.20184 7.20184 4.67177 10.4422 3.91169C12.7823 3.36277 15.2177 3.36277 17.5578 3.91169C20.7982 4.67177 23.3282 7.20184 24.0883 10.4422C24.6372 12.7823 24.6372 15.2177 24.0883 17.5578C23.3282 20.7982 20.7982 23.3282 17.5578 24.0883C15.2177 24.6372 12.7823 24.6372 10.4422 24.0883C7.20185 23.3282 4.67177 20.7982 3.91169 17.5578C3.36277 15.2177 3.36277 12.7823 3.91169 10.4422Z" stroke="#363853" stroke-width="1.5"/>
<path d="M16.0624 11.9376L11.9376 16.0624M16.0624 16.0624L11.9376 11.9376" stroke="#363853" stroke-width="1.5" stroke-linecap="round"/>
</svg>
